<?xml version="1.0" encoding="UTF-8"?>
<svg version="1.1" xmlns="http://www.w3.org/2000/svg" width="512" height="512">
<path d="M0 0 C0.83128418 0.20963379 1.66256836 0.41926758 2.51904297 0.63525391 C52.36495093 13.56195274 100.46062107 45.1395035 132 86 C132.79664063 86.99128906 133.59328125 87.98257813 134.4140625 89.00390625 C140.99090205 97.24607633 146.64385342 105.92458716 152 115 C152.4448877 115.74604492 152.88977539 116.49208984 153.34814453 117.26074219 C167.17508905 140.65111867 176.29523677 166.06407962 181.75 192.625 C181.94891846 193.58921875 182.14783691 194.5534375 182.3527832 195.546875 C185.3189574 210.81675502 186.38653921 226.03168614 186.3125 241.5625 C186.31034485 242.38560669 186.3081897 243.20871338 186.30596924 244.0567627 C186.01406679 314.00198865 156.80656719 375.34593138 108.4375 424.75 C103.24108023 429.88694716 97.74770719 434.4963171 92 439 C91.03835938 439.77859375 90.07671875 440.5571875 89.0859375 441.359375 C67.29277285 458.68356159 42.34856352 472.09838949 16 481 C14.78546143 481.41306396 14.78546143 481.41306396 13.54638672 481.83447266 C3.63312254 485.1455468 -6.38771277 487.65586752 -16.625 489.75 C-17.58889648 489.94875732 -18.55279297 490.14751465 -19.54589844 490.35229492 C-34.83759651 493.32426523 -50.07208551 494.38472318 -65.625 494.3125 C-66.44872101 494.31067719 -67.27244202 494.30885437 -68.12112427 494.30697632 C-81.92893883 494.25583441 -95.38907819 493.46603063 -109 491 C-109.92135742 490.83902832 -110.84271484 490.67805664 -111.79199219 490.51220703 C-155.83006136 482.58900793 -196.54940477 462.59436039 -230 433 C-230.85851562 432.25234375 -231.71703125 431.5046875 -232.6015625 430.734375 C-242.97874188 421.5761024 -252.47079544 411.91191829 -261 401 C-262.14855469 399.59427734 -262.14855469 399.59427734 -263.3203125 398.16015625 C-292.34206191 361.90629887 -309.55216933 316.89184695 -315 271 C-315.09571289 270.19868652 -315.19142578 269.39737305 -315.29003906 268.57177734 C-316.19030836 260.02244581 -316.24338962 251.4621031 -316.25 242.875 C-316.25067474 242.08276031 -316.25134949 241.29052063 -316.25204468 240.47427368 C-316.23321748 226.47440684 -315.37860427 212.8187851 -313 199 C-312.8443457 198.07606445 -312.68869141 197.15212891 -312.52832031 196.20019531 C-302.41208725 138.59218549 -270.44737395 82.97200876 -224 47 C-223.01902344 46.21367188 -222.03804688 45.42734375 -221.02734375 44.6171875 C-199.21381512 27.25344044 -174.42018838 13.87048391 -148 5 C-147.19320801 4.72607422 -146.38641602 4.45214844 -145.55517578 4.16992188 C-98.59395836 -11.51847034 -47.8204115 -12.14084291 0 0 Z M-93.4375 26.125 C-94.94413208 26.32077637 -94.94413208 26.32077637 -96.48120117 26.52050781 C-129.09221758 31.07781462 -162.14396328 42.63447585 -189 62 C-189.63164062 62.44811035 -190.26328125 62.8962207 -190.9140625 63.35791016 C-199.99088573 69.83040356 -208.45881177 76.74805201 -216.46191406 84.50878906 C-217.99314713 85.99335598 -219.53914477 87.46136238 -221.0859375 88.9296875 C-228.49280328 96.05363161 -234.8822438 103.75256489 -241 112 C-241.63550781 112.85207031 -242.27101562 113.70414062 -242.92578125 114.58203125 C-276.46476064 161.07399578 -289.26631216 219.41551715 -281.03515625 275.9140625 C-273.67969889 321.215499 -253.7563264 361.91361967 -222 395 C-221.46503906 395.56219238 -220.93007812 396.12438477 -220.37890625 396.70361328 C-184.14314665 434.60261935 -134.96542875 456.31138989 -83 461 C-77.39 461 -71.78 461 -66 461 C-66 394.67 -66 328.34 -66 260 C-114.84 260 -163.68 260 -214 260 C-214 249.11 -214 238.22 -214 227 C-165.16 227 -116.32 227 -66 227 C-66 160.34 -66 93.68 -66 25 C-79.81674436 24.95481964 -79.81674436 24.95481964 -93.4375 26.125 Z " fill="#E9D6F8" transform="translate(322,14)"/>
<path d="M0 0 C0.83128418 0.20963379 1.66256836 0.41926758 2.51904297 0.63525391 C52.36495093 13.56195274 100.46062107 45.1395035 132 86 C132.79664063 86.99128906 133.59328125 87.98257813 134.4140625 89.00390625 C140.99090205 97.24607633 146.64385342 105.92458716 152 115 C152.4448877 115.74604492 152.88977539 116.49208984 153.34814453 117.26074219 C167.17508905 140.65111867 176.29523677 166.06407962 181.75 192.625 C181.94891846 193.58921875 182.14783691 194.5534375 182.3527832 195.546875 C185.3189574 210.81675502 186.38653921 226.03168614 186.3125 241.5625 C186.31034485 242.38560669 186.3081897 243.20871338 186.30596924 244.0567627 C186.01406679 314.00198865 156.80656719 375.34593138 108.4375 424.75 C103.24108023 429.88694716 97.74770719 434.4963171 92 439 C91.03835938 439.77859375 90.07671875 440.5571875 89.0859375 441.359375 C67.29277285 458.68356159 42.34856352 472.09838949 16 481 C14.78546143 481.41306396 14.78546143 481.41306396 13.54638672 481.83447266 C3.63312254 485.1455468 -6.38771277 487.65586752 -16.625 489.75 C-17.58889648 489.94875732 -18.55279297 490.14751465 -19.54589844 490.35229492 C-34.83759651 493.32426523 -50.07208551 494.38472318 -65.625 494.3125 C-66.44872101 494.31067719 -67.27244202 494.30885437 -68.12112427 494.30697632 C-81.92893883 494.25583441 -95.38907819 493.46603063 -109 491 C-109.92135742 490.83902832 -110.84271484 490.67805664 -111.79199219 490.51220703 C-155.83006136 482.58900793 -196.54940477 462.59436039 -230 433 C-230.85851562 432.25234375 -231.71703125 431.5046875 -232.6015625 430.734375 C-242.97874188 421.5761024 -252.47079544 411.91191829 -261 401 C-262.14855469 399.59427734 -262.14855469 399.59427734 -263.3203125 398.16015625 C-292.34206191 361.90629887 -309.55216933 316.89184695 -315 271 C-315.09571289 270.19868652 -315.19142578 269.39737305 -315.29003906 268.57177734 C-316.19030836 260.02244581 -316.24338962 251.4621031 -316.25 242.875 C-316.25067474 242.08276031 -316.25134949 241.29052063 -316.25204468 240.47427368 C-316.23321748 226.47440684 -315.37860427 212.8187851 -313 199 C-312.8443457 198.07606445 -312.68869141 197.15212891 -312.52832031 196.20019531 C-302.41208725 138.59218549 -270.44737395 82.97200876 -224 47 C-223.01902344 46.21367188 -222.03804688 45.42734375 -221.02734375 44.6171875 C-199.21381512 27.25344044 -174.42018838 13.87048391 -148 5 C-147.19320801 4.72607422 -146.38641602 4.45214844 -145.55517578 4.16992188 C-98.59395836 -11.51847034 -47.8204115 -12.14084291 0 0 Z M-189 62 C-189.63164062 62.44811035 -190.26328125 62.8962207 -190.9140625 63.35791016 C-199.99088573 69.83040356 -208.45881177 76.74805201 -216.46191406 84.50878906 C-217.99314713 85.99335598 -219.53914477 87.46136238 -221.0859375 88.9296875 C-228.49280328 96.05363161 -234.8822438 103.75256489 -241 112 C-241.63550781 112.85207031 -242.27101562 113.70414062 -242.92578125 114.58203125 C-276.46476064 161.07399578 -289.26631216 219.41551715 -281.03515625 275.9140625 C-273.67969889 321.215499 -253.7563264 361.91361967 -222 395 C-221.46503906 395.56219238 -220.93007812 396.12438477 -220.37890625 396.70361328 C-179.57467043 439.3807918 -124.24404074 459.65051429 -66 462 C-64.31390625 462.08121094 -64.31390625 462.08121094 -62.59375 462.1640625 C-51.58392449 462.45241507 -40.84146465 460.71190922 -30 459 C-29.13455566 458.87141602 -28.26911133 458.74283203 -27.37744141 458.61035156 C-11.93219504 456.28156514 2.42907592 451.55553551 17 446 C17.78246094 445.70222656 18.56492187 445.40445312 19.37109375 445.09765625 C43.53901842 435.69151797 65.9461866 420.68681648 84.41552734 402.55371094 C86.10321278 400.89879104 87.81107259 399.26626111 89.51953125 397.6328125 C97.45429165 389.96232926 104.45850096 381.88272579 111 373 C111.63292969 372.15050781 112.26585937 371.30101562 112.91796875 370.42578125 C146.13918527 324.43302154 161.01644471 264.79692181 152.0390625 208.65234375 C145.52403772 171.80942527 131.41436703 137.37654143 108 108 C107.20464844 106.9996875 106.40929687 105.999375 105.58984375 104.96875 C94.03473544 90.74793192 80.92857711 77.65314601 66 67 C65.34515625 66.52788086 64.6903125 66.05576172 64.015625 65.56933594 C44.1852832 51.41412485 23.07475072 41.62962439 0 34 C-1.22976563 33.57074219 -2.45953125 33.14148437 -3.7265625 32.69921875 C-18.90663733 27.61958131 -35.56086267 24.89330922 -51.56640625 24.796875 C-52.3543306 24.78981537 -53.14225494 24.78275574 -53.95405579 24.77548218 C-101.79104255 24.4447231 -149.3532112 33.41123787 -189 62 Z " fill="#9500D5" transform="translate(322,14)"/>
<path d="M0 0 C3.70713703 1.55252818 6.06069781 3.81407595 8.88482666 6.64431763 C9.36193643 7.11971855 9.83904621 7.59511947 10.33061385 8.08492649 C11.92604554 9.67706731 13.51422968 11.27624459 15.10253906 12.87548828 C16.24554205 14.01905547 17.38898573 15.16218233 18.53283691 16.30490112 C21.63616903 19.40765907 24.73329308 22.51654788 27.82935047 25.6265626 C31.06623189 28.87594064 34.30877229 32.11966144 37.55072021 35.36398315 C43.68864863 41.50812947 49.82146068 47.65735656 55.95245719 53.80841911 C62.93275227 60.81106352 69.91872253 67.80803445 76.90517855 74.80453134 C91.27644899 89.1967108 105.6405669 103.59601075 120 118 C118.44747182 121.70713703 116.18592405 124.06069781 113.35568237 126.88482666 C112.88028145 127.36193643 112.40488053 127.83904621 111.91507351 128.33061385 C110.32293269 129.92604554 108.72375541 131.51422968 107.12451172 133.10253906 C105.98094453 134.24554205 104.83781767 135.38898573 103.69509888 136.53283691 C100.59234093 139.63616903 97.48345212 142.73329308 94.3734374 145.82935047 C91.12405936 149.06623189 87.88033856 152.30877229 84.63601685 155.55072021 C78.49187053 161.68864863 72.34264344 167.82146068 66.19158089 173.95245719 C59.18893648 180.93275227 52.19196555 187.91872253 45.19546866 194.90517855 C30.8032892 209.27644899 16.40398925 223.6405669 2 238 C-1.07172367 236.54035031 -2.89008701 235.2585646 -5.0625 232.625 C-8.26801481 228.83157418 -11.57336938 225.15217586 -14.9375 221.5 C-15.43451416 220.95939941 -15.93152832 220.41879883 -16.44360352 219.86181641 C-17.62825769 218.57379759 -18.81400976 217.28678869 -20 216 C-3.55480482 183.10960964 30.99786334 163.00213666 57 137 C-21.54 137 -100.08 137 -181 137 C-181 126.11 -181 115.22 -181 104 C-63.19 103.505 -63.19 103.505 57 103 C53.7 99.7 50.4 96.4 47 93 C45.37891948 91.12463234 43.758084 89.24903591 42.14453125 87.3671875 C36.68538637 81.34124616 30.77692881 75.71882751 25 70 C9.88520292 55.03721956 9.88520292 55.03721956 4.78076172 49.0078125 C0.44687726 44.12134886 -4.30142473 39.5981743 -8.9375 35 C-10.01390654 33.92862113 -11.09008014 32.85700818 -12.16601562 31.78515625 C-14.77466745 29.18740362 -17.38644471 26.59282038 -20 24 C-18.65324235 21.02022724 -17.139133 18.86290683 -14.8828125 16.50390625 C-13.97208984 15.54194336 -13.97208984 15.54194336 -13.04296875 14.56054688 C-12.41003906 13.90119141 -11.77710938 13.24183594 -11.125 12.5625 C-7.24315763 8.49256836 -3.42778651 4.4699025 0 0 Z " fill="#9500D5" transform="translate(289,137)"/>
</svg>
