<svg width="500" height="500" viewBox="0 0 500 500" fill="none" xmlns="http://www.w3.org/2000/svg">
<path d="M422.514 430.134H65.134C61.665 430.134 58.853 432.946 58.853 436.415C58.853 439.884 61.665 442.696 65.134 442.696H422.514C425.983 442.696 428.795 439.884 428.795 436.415C428.796 432.946 425.983 430.134 422.514 430.134Z" fill="#FD7670"/>
<path d="M422.374 442.697H65.2759V451.29H422.374V442.697Z" fill="#291516"/>
<path d="M360.83 392.943H154.001C149.365 392.943 145.606 389.185 145.606 384.548V260.88C145.606 256.244 149.364 252.485 154.001 252.485H360.83C365.466 252.485 369.225 256.243 369.225 260.88V384.549C369.224 389.185 365.466 392.943 360.83 392.943Z" fill="#3B48AE"/>
<path d="M362.916 259.212H151.915V369.251H362.916V259.212Z" fill="#8DC9D2"/>
<path d="M288.092 392.943H226.738V423.081H288.092V392.943Z" fill="#291516"/>
<path d="M300.647 430.134H214.183V427.984C214.183 425.276 216.378 423.082 219.085 423.082H295.744C298.451 423.082 300.646 425.277 300.646 427.984V430.134H300.647Z" fill="#3B48AE"/>
<path d="M263.304 382.477C263.304 385.729 260.668 388.366 257.415 388.366C254.162 388.366 251.526 385.73 251.526 382.477C251.526 379.225 254.162 376.589 257.415 376.589C260.668 376.589 263.304 379.224 263.304 382.477Z" fill="#E9C584"/>
<path d="M348.916 270.566H207.058V346.643H348.916V270.566Z" stroke="#F5F7F5" stroke-miterlimit="10"/>
<path d="M348.916 351.642H273.592" stroke="#F5F7F5" stroke-miterlimit="10"/>
<path d="M348.916 357.827H291.591" stroke="#F5F7F5" stroke-miterlimit="10"/>
<path d="M198.645 270.566H158.221V282.88H198.645V270.566Z" stroke="#F5F7F5" stroke-miterlimit="10"/>
<path d="M198.645 290.04H158.221V302.354H198.645V290.04Z" stroke="#F5F7F5" stroke-miterlimit="10"/>
<path d="M198.645 309.515H158.221V321.829H198.645V309.515Z" stroke="#F5F7F5" stroke-miterlimit="10"/>
<path d="M198.645 328.989H158.221V341.303H198.645V328.989Z" stroke="#F5F7F5" stroke-miterlimit="10"/>
<path d="M198.645 348.463H158.221V360.777H198.645V348.463Z" stroke="#F5F7F5" stroke-miterlimit="10"/>
<path d="M212.524 340.582V343.785L214.925 342.094L212.524 340.582Z" stroke="#F5F7F5" stroke-miterlimit="10"/>
<path d="M145.606 430.134H86.4121V405.373C86.4121 403.437 87.9821 401.867 89.9181 401.867H142.1C144.036 401.867 145.606 403.437 145.606 405.373V430.134Z" fill="#291516"/>
<path d="M98.748 428.703V374.405C98.748 373.615 99.389 372.974 100.179 372.974H129.683C130.473 372.974 131.114 373.609 131.114 374.4C131.114 382.315 131.114 420.793 131.114 428.709C131.114 429.499 130.473 430.134 129.683 430.134H100.179C99.389 430.134 98.748 429.493 98.748 428.703Z" fill="#3B48AE"/>
<path d="M121.445 376.588L120.314 378.095C120.078 378.41 119.725 378.592 119.354 378.592H110.279C109.907 378.592 109.555 378.41 109.318 378.095L108.187 376.588H101.119V427.145H128.741V376.588H121.445Z" fill="#E9C584"/>
<path d="M124.439 376.588L118.407 427.145" stroke="#F5F7F5" stroke-miterlimit="10"/>
<path d="M114.159 427.145L119.975 378.401" stroke="#F5F7F5" stroke-miterlimit="10"/>
<path d="M116.501 378.592L110.709 427.145" stroke="#F5F7F5" stroke-miterlimit="10"/>
<path d="M104.468 373.792C104.468 376.951 101.907 379.512 98.7483 379.512C95.5893 379.512 93.0283 376.951 93.0283 373.792C93.0283 370.633 95.5893 368.072 98.7483 368.072C101.907 368.072 104.468 370.633 104.468 373.792Z" fill="#FD7670"/>
<path d="M98.5794 371.395H98.5594L97.4444 371.997L97.2764 371.337L98.6774 370.587H99.4174V377H98.5784L98.5794 371.395Z" fill="#F5F7F5"/>
<path d="M395.982 380.246H351.402V430.134H395.982V380.246Z" fill="#E9C584"/>
<path d="M351.401 423.748H349.985C342.545 423.748 336.492 417.695 336.492 410.255V400.126C336.492 392.686 342.545 386.633 349.985 386.633H351.401V391.072H349.985C344.992 391.072 340.931 395.133 340.931 400.126V410.255C340.931 415.248 344.992 419.309 349.985 419.309H351.401V423.748Z" fill="#FD7670"/>
<path d="M351.401 401.022H395.981" stroke="#F5F7F5" stroke-miterlimit="10"/>
<path d="M351.401 412.138H395.981" stroke="#F5F7F5" stroke-miterlimit="10"/>
<path d="M174.856 144.727H54.2881V149.123H174.856V144.727Z" fill="#3B48AE"/>
<path d="M125.112 89.896C123.837 87.306 122.73 84.639 121.935 81.801C120.329 76.07 126.467 73.43 128.59 79.105C131.662 87.318 132.593 97.226 134.537 105.811C133.523 101.333 135.101 94.279 136.144 89.749C136.952 86.242 139.192 76.655 143.26 75.568C148.621 74.136 144.813 86.401 144.251 88.298C143.181 91.906 139.115 106.79 133.735 104.278C131.866 103.405 130.2 99.091 129.189 97.347C127.76 94.878 126.356 92.424 125.112 89.896Z" stroke="#F5F7F5" stroke-miterlimit="10"/>
<path d="M85.3789 82.432H71.7539V135.769H85.3789V82.432Z" fill="#3B48AE"/>
<path d="M95.5079 90.646H85.3799V135.768H95.5079V90.646Z" fill="#E9C584"/>
<path d="M148.433 135.769H122.165L118.811 100.877H151.787L148.433 135.769Z" fill="#8DC9D2"/>
<path d="M174.856 135.769H54.2881V144.727H174.856V135.769Z" stroke="#F5F7F5" stroke-miterlimit="10"/>
<path d="M123.629 105.811L126.48 135.769" stroke="#F5F7F5" stroke-miterlimit="10"/>
<path d="M70.2163 87.347H85.3803" stroke="#F5F7F5" stroke-miterlimit="10"/>
<path d="M70.2163 130.305H85.3803" stroke="#F5F7F5" stroke-miterlimit="10"/>
<path d="M307.383 140.499C309.518 146.865 311.354 153.285 312.008 159.969C313.65 176.743 303.691 190.61 288.544 197.074C285.51 198.369 282.236 198.982 278.991 199.585C262.235 202.696 246.102 202.415 236.319 186.258C231.242 177.872 229.579 167.773 229.917 157.976C230.563 139.274 235.813 117.508 233.234 98.841C232.702 94.993 235.926 93.74 236.598 89.915C237.593 84.249 242.296 80.082 246.712 76.394C259.922 65.36 274.492 63.932 288.81 74.658C299.484 82.654 297.046 97.304 298.395 109.009C299.658 119.959 303.915 130.157 307.383 140.499Z" fill="#291516"/>
<path d="M239.587 336.284H285.292V315.504C285.292 314.247 286.362 313.228 287.683 313.228C289.003 313.228 290.074 314.247 290.074 315.504V336.284H335.779L338.221 321.256C344.171 292.48 334.677 262.774 312.901 242.027L260.349 244.803C260.349 244.803 227.485 274.566 237.147 321.256L239.587 336.284Z" fill="#291516"/>
<path d="M259.612 137.621L260.636 149.017C261.264 156.006 258.364 162.848 252.905 167.257L238.005 179.291C238.005 179.291 254.123 200.719 278.372 195.657C302.622 190.595 305.411 160.553 305.411 160.553L287.686 155.972C283.512 154.893 280.378 151.436 279.713 147.176L277.962 135.964L259.612 137.621Z" fill="#EFC8C3"/>
<path d="M259.612 137.621L277.962 135.965L278.724 140.846C278.724 140.846 271.078 148.482 259.913 140.975C259.901 140.836 259.612 137.621 259.612 137.621Z" fill="#FD716A"/>
<path d="M266.916 138.672C253.343 138.765 242.264 127.838 242.171 114.264L241.937 80.188L291.09 79.85L291.324 113.926C291.416 127.5 280.489 138.579 266.916 138.672Z" fill="#EFC8C3"/>
<path d="M288.703 86.28C288.703 86.28 273.842 84.606 265.26 85.234C259.769 85.636 241.189 89.002 241.189 89.002L233.654 102.817C225.282 70.792 245.354 59.518 260.18 57.12C281.979 53.594 297.703 67.025 298.75 95.073L288.703 86.28Z" fill="#291516"/>
<path d="M245.385 106.527C245.415 110.861 241.925 114.399 237.591 114.428C233.257 114.458 229.719 110.968 229.689 106.634C229.659 102.3 233.149 98.762 237.483 98.732C241.817 98.704 245.355 102.193 245.385 106.527Z" fill="#EFC8C3"/>
<path d="M301.519 100.513C301.549 104.847 298.059 108.385 293.725 108.415C289.391 108.445 285.853 104.955 285.824 100.621C285.794 96.287 289.284 92.749 293.618 92.719C297.952 92.689 301.49 96.179 301.519 100.513Z" fill="#EFC8C3"/>
<path d="M235.814 84.016L241.864 105.061C241.943 106.065 243.409 106.081 243.509 105.079L241.398 83.978L235.814 84.016Z" fill="#291516"/>
<path d="M292.926 82.729L291.503 104.72C291.438 105.725 289.973 105.761 289.858 104.76L287.342 82.767L292.926 82.729Z" fill="#291516"/>
<path d="M256.357 102.898C256.365 104.093 255.403 105.069 254.208 105.077C253.013 105.085 252.037 104.123 252.029 102.928C252.021 101.733 252.983 100.757 254.178 100.749C255.373 100.741 256.348 101.703 256.357 102.898Z" fill="#291516"/>
<path d="M257.749 93.912C256.578 93.557 252.189 90.71 247.573 96.144" stroke="#291516" stroke-width="1.6412" stroke-miterlimit="10" stroke-linecap="round"/>
<path d="M275.554 100.309C275.562 101.504 276.538 102.466 277.733 102.458C278.928 102.45 279.89 101.474 279.882 100.279C279.874 99.084 278.898 98.122 277.703 98.13C276.508 98.139 275.546 99.114 275.554 100.309Z" fill="#291516"/>
<path d="M272.744 91.714C272.744 91.714 277.85 87.534 282.972 92.849" stroke="#291516" stroke-width="1.6412" stroke-miterlimit="10" stroke-linecap="round"/>
<path d="M265.979 99.473L262.278 111.086L266.062 111.618" stroke="#FD716A" stroke-width="0.8206" stroke-miterlimit="10" stroke-linecap="round"/>
<path d="M259.868 119.357C260.759 123.04 264.467 125.302 268.15 124.41C271.832 123.519 274.095 119.811 273.203 116.128L259.868 119.357Z" fill="white"/>
<path d="M207.058 336.284H348.916" stroke="#F5F7F5" stroke-miterlimit="10"/>
<path d="M239.889 110.939C242.163 110.939 243.282 117.246 243.282 124.793C243.282 132.34 241.438 138.458 239.164 138.458C236.89 138.458 235.046 132.34 235.046 124.793C235.046 120.517 235.638 116.7 236.564 114.195" stroke="#8DC9D2" stroke-miterlimit="10"/>
<path d="M294.252 103.681C291.978 103.681 290.134 109.799 290.134 117.346C290.134 124.893 291.978 131.011 294.252 131.011C296.526 131.011 298.37 124.893 298.37 117.346C298.37 113.07 297.778 109.253 296.852 106.748" stroke="#8DC9D2" stroke-miterlimit="10"/>
<path d="M133.636 211.9C132.146 211.51 131.253 209.847 129.86 210.504C128.875 210.969 128.115 211.796 127.394 212.613C125.782 214.442 124.155 216.505 124.008 218.939C123.889 220.919 124.864 222.931 126.493 224.063C127.503 224.765 128.703 225.127 129.881 225.479C146.518 230.446 163.156 235.413 179.793 240.381C184.128 241.675 188.478 242.973 192.944 243.699C195.48 244.111 198.389 244.231 200.284 242.495C201.276 241.586 201.826 240.292 202.187 238.996C203.311 234.965 203.116 226.873 198.801 224.495C196.902 223.448 194.302 224.04 192.246 223.888C188.823 223.637 158.538 218.423 133.636 211.9Z" fill="#EFC8C3"/>
<path d="M139.295 218.063L109.644 173.976C109.213 173.334 108.343 173.164 107.701 173.596L83.745 189.708C83.103 190.139 82.93 191.005 83.362 191.647C87.685 198.074 108.697 229.316 113.019 235.743C113.451 236.385 114.318 236.551 114.959 236.119L138.915 220.007C139.556 219.575 139.726 218.705 139.295 218.063Z" fill="#FD716A"/>
<path d="M108.915 177.044L86.4868 192.129L112.566 230.904L134.994 215.819L108.915 177.044Z" fill="#E9C584"/>
<path d="M89.9761 189.778L120.715 225.395" stroke="#F5F7F5" stroke-miterlimit="10"/>
<path d="M124.163 223.076L93.3237 187.525" stroke="#F5F7F5" stroke-miterlimit="10"/>
<path d="M96.2271 185.574L126.965 221.192" stroke="#F5F7F5" stroke-miterlimit="10"/>
<path d="M125.434 227.118C126.304 227.118 127.01 226.412 127.01 225.542C127.01 224.672 126.304 223.966 125.434 223.966C124.564 223.966 123.858 224.672 123.858 225.542C123.858 226.412 124.564 227.118 125.434 227.118Z" stroke="#F5F7F5" stroke-miterlimit="10"/>
<path d="M136.398 205.061C136.068 204.262 135.665 203.449 134.971 202.934C134.186 202.352 133.159 202.24 132.185 202.16C128.774 201.88 125.352 201.738 121.93 201.735C121.473 201.735 120.922 201.791 120.717 202.201C120.56 202.515 120.692 202.894 120.865 203.2C121.674 204.629 123.266 205.41 124.806 205.98C126.738 206.696 128.742 207.216 130.778 207.531C131.184 207.594 131.61 207.655 131.942 207.897C132.231 208.107 132.414 208.429 132.588 208.74C132.983 209.446 133.379 210.152 133.774 210.858C134.6 212.333 135.696 213.819 137.087 214.78C138.015 215.421 139.42 215.982 140.514 215.446C142.069 214.684 140.259 213.675 139.593 212.686C138.044 210.385 137.445 207.596 136.398 205.061Z" fill="#EFC8C3"/>
<path d="M100.826 207.605C100.826 209.122 98.1207 210.352 94.7827 210.352C91.4457 210.352 88.7397 209.122 88.7397 207.605C88.7397 206.088 91.4447 204.858 94.7827 204.858C98.1197 204.857 100.826 206.087 100.826 207.605Z" fill="#EFC8C3"/>
<path d="M96.7032 214.757C100.041 214.757 102.746 213.527 102.746 212.01C102.746 210.493 100.041 209.263 96.7032 209.263C93.3657 209.263 90.6602 210.493 90.6602 212.01C90.6602 213.527 93.3657 214.757 96.7032 214.757Z" fill="#EFC8C3"/>
<path d="M105.41 216.528C105.41 218.045 102.705 219.275 99.3667 219.275C96.0297 219.275 93.3237 218.045 93.3237 216.528C93.3237 215.011 96.0287 213.781 99.3667 213.781C102.704 213.78 105.41 215.01 105.41 216.528Z" fill="#EFC8C3"/>
<path d="M108.788 221.192C108.788 222.709 106.083 223.939 102.745 223.939C99.4081 223.939 96.7021 222.709 96.7021 221.192C96.7021 219.675 99.4071 218.445 102.745 218.445C106.083 218.444 108.788 219.674 108.788 221.192Z" fill="#EFC8C3"/>
<path d="M412.42 153.672C413.655 152.753 413.862 150.877 415.399 150.964C416.487 151.026 417.501 151.509 418.475 151.997C420.655 153.09 422.936 154.394 423.982 156.596C424.834 158.388 424.682 160.618 423.595 162.278C422.921 163.306 421.944 164.092 420.983 164.859C407.414 175.692 393.844 186.525 380.275 197.358C376.739 200.181 373.191 203.012 369.321 205.357C367.123 206.688 364.471 207.889 362.064 206.988C360.804 206.516 359.81 205.522 358.99 204.456C356.439 201.138 353.592 193.562 356.703 189.742C358.072 188.061 360.705 187.636 362.555 186.726C365.637 185.211 391.769 169.042 412.42 153.672Z" fill="#EFC8C3"/>
<path d="M409.479 161.506L420.475 109.525C420.635 108.768 421.378 108.285 422.135 108.445L450.38 114.42C451.137 114.58 451.621 115.318 451.461 116.074C449.858 123.652 442.065 160.487 440.462 168.065C440.302 168.822 439.56 169.3 438.804 169.14L410.559 163.165C409.802 163.005 409.319 162.262 409.479 161.506Z" fill="#3B48AE"/>
<path d="M422.304 112.095L412.633 157.811L439.076 163.406L448.747 117.689L442.084 116.275L440.639 117.994L430.091 115.763L429.453 113.603L422.304 112.095Z" fill="#8DC9D2"/>
<path d="M444.628 116.818L429.453 161.352" stroke="#F5F7F5" stroke-miterlimit="10"/>
<path d="M425.387 160.491L440.031 117.87" stroke="#F5F7F5" stroke-miterlimit="10"/>
<path d="M436.614 117.148L422.083 159.792" stroke="#F5F7F5" stroke-miterlimit="10"/>
<path d="M407.298 148.365C407.305 147.5 407.374 146.596 407.825 145.858C408.335 145.025 409.246 144.537 410.119 144.098C413.177 142.561 416.297 141.149 419.47 139.866C419.894 139.694 420.426 139.541 420.769 139.844C421.032 140.076 421.052 140.478 421.006 140.825C420.791 142.453 419.607 143.773 418.392 144.878C416.868 146.265 415.205 147.498 413.434 148.552C413.081 148.762 412.709 148.979 412.492 149.327C412.303 149.63 412.254 149.996 412.208 150.351C412.105 151.154 412.003 151.956 411.901 152.759C411.687 154.436 411.227 156.224 410.297 157.636C409.677 158.578 408.584 159.624 407.368 159.536C405.641 159.411 406.942 157.798 407.189 156.632C407.765 153.917 407.276 151.107 407.298 148.365Z" fill="#EFC8C3"/>
<path d="M441.238 137.41C441.806 138.817 444.775 138.945 447.87 137.696C450.965 136.447 453.013 134.294 452.445 132.887C451.877 131.48 448.908 131.352 445.813 132.601C442.719 133.85 440.67 136.003 441.238 137.41Z" fill="#EFC8C3"/>
<path d="M441.106 142.214C441.674 143.621 444.643 143.749 447.738 142.5C450.833 141.251 452.881 139.098 452.313 137.691C451.745 136.284 448.776 136.156 445.681 137.405C442.587 138.653 440.538 140.807 441.106 142.214Z" fill="#EFC8C3"/>
<path d="M440.327 147.4C440.895 148.807 443.864 148.935 446.959 147.686C450.054 146.437 452.102 144.284 451.534 142.877C450.966 141.47 447.997 141.342 444.902 142.591C441.807 143.84 439.759 145.993 440.327 147.4Z" fill="#EFC8C3"/>
<path d="M438.939 152.99C439.507 154.397 442.476 154.525 445.571 153.276C448.666 152.027 450.714 149.874 450.146 148.467C449.578 147.06 446.609 146.932 443.514 148.181C440.42 149.43 438.371 151.583 438.939 152.99Z" fill="#EFC8C3"/>
<path d="M231.855 185.19C231.38 190.09 233.525 195.286 235.683 200.029C238.41 206.024 241.138 212.018 243.865 218.013C248.035 227.178 252.232 236.423 254.442 246.246C255.508 250.986 244.762 265.027 244.762 265.027C244.762 265.027 265.208 276.528 292.682 276.528C318.247 276.528 331.657 266.944 331.657 266.944C331.657 266.944 317.746 238.136 318.783 230.531C320.252 219.759 320.44 208.856 320.637 198.002C320.827 187.587 322.252 169.326 312.773 162.001C310.762 160.447 308.221 159.788 305.754 159.177C299.104 157.531 292.431 155.974 285.739 154.507C279.641 163.954 266.314 167.916 256.046 163.336C255.598 163.136 255.115 162.917 254.636 163.019C254.324 163.085 254.057 163.281 253.8 163.471C249.124 166.943 244.449 170.414 239.773 173.886C238.157 175.086 236.53 176.296 235.179 177.788C233.085 180.101 232.106 182.604 231.855 185.19Z" fill="#FD716A"/>
<path d="M196.146 214.961C194.555 216.993 191.518 221.068 191.518 221.068C191.518 221.068 191.846 239.99 202.217 262.209C207.995 260.476 214.929 252.964 218.974 247.185C227.64 234.804 230.424 227.014 238.012 213.945C241.686 207.618 245.296 201.124 246.99 194.007C248.237 188.765 248.586 182.453 246.487 177.361C244.02 171.376 239.791 173.363 235.651 176.442C226.187 183.48 217.325 191.326 209.192 199.868C204.605 204.685 200.249 209.723 196.146 214.961Z" fill="#FD716A"/>
<path d="M355.598 179.906C357.834 181.195 362.175 183.838 362.175 183.838C362.175 183.838 369.182 205.68 364.589 228.695C360.544 226.384 358.573 224.66 353.185 221.105C340.571 212.781 328.321 203.912 316.393 194.633C310.618 190.141 304.84 185.47 300.606 179.503C297.487 175.108 294.802 169.386 294.843 163.879C294.891 157.405 299.556 157.666 304.547 158.971C315.957 161.955 327.111 165.915 337.85 170.792C343.908 173.542 349.834 176.585 355.598 179.906Z" fill="#FD716A"/>
<path d="M270.702 85.862L270.492 79.164L274.051 86.49L270.702 85.862Z" fill="#EFC8C3"/>
<path d="M251.026 87.745L251.654 81.047L253.329 87.745H251.026Z" fill="#EFC8C3"/>
<path d="M298.331 97.374C298.331 97.374 293.726 98.421 292.68 102.607" stroke="#FD716A" stroke-width="0.8206" stroke-miterlimit="10" stroke-linecap="round"/>
<path d="M233.026 105.118C233.026 105.118 239.096 103.653 241.817 110.141" stroke="#FD716A" stroke-width="0.8206" stroke-miterlimit="10" stroke-linecap="round"/>
<path d="M293.935 100.304C293.935 100.304 297.284 100.304 296.447 104.072" stroke="#FD716A" stroke-width="0.8206" stroke-miterlimit="10" stroke-linecap="round"/>
<path d="M238.886 106.374C238.886 106.374 235.118 107.839 237.002 111.397" stroke="#FD716A" stroke-width="0.8206" stroke-miterlimit="10" stroke-linecap="round"/>
<path d="M241.666 209.39C243.083 204.989 244.501 200.588 245.919 196.187C246.166 195.419 244.96 195.091 244.714 195.855C243.296 200.256 241.879 204.657 240.461 209.058C240.214 209.825 241.42 210.154 241.666 209.39Z" fill="#FD473D"/>
<path d="M320.644 197.121C319.396 193.833 317.538 190.824 315.144 188.246C314.595 187.655 313.713 188.541 314.26 189.13C316.5 191.542 318.27 194.375 319.438 197.453C319.721 198.198 320.93 197.875 320.644 197.121Z" fill="#FD473D"/>
<path d="M253.286 166.915C259.373 170.502 267.401 170.667 274.106 169.037C280.347 167.52 285.841 164.558 288.564 158.478C288.89 157.75 287.813 157.114 287.485 157.847C286.295 160.504 284.55 162.806 282.124 164.449C279.614 166.148 276.699 167.122 273.775 167.832C267.395 169.383 259.715 169.251 253.919 165.836C253.223 165.427 252.593 166.507 253.286 166.915Z" fill="#FD473D"/>
<path d="M357.441 184.4C359.062 196.196 358.849 208.208 356.822 219.94C356.686 220.727 357.89 221.065 358.027 220.272C360.096 208.3 360.3 196.103 358.646 184.067C358.538 183.274 357.333 183.612 357.441 184.4Z" fill="#FD473D"/>
<path d="M193.568 220.062C195.054 232.089 198.929 243.711 204.994 254.206C205.396 254.902 206.477 254.274 206.073 253.575C200.126 243.283 196.275 231.862 194.817 220.062C194.721 219.274 193.469 219.264 193.568 220.062Z" fill="#FD473D"/>
<path d="M250.584 263.35C251.534 264.561 253.118 265.278 254.49 265.881C256.675 266.84 258.955 267.575 261.244 268.24C266.49 269.766 271.845 270.927 277.207 271.961C280.891 272.671 284.598 273.419 288.355 273.566C294.728 273.814 301.174 273.124 307.445 272.03C314.28 270.838 321.458 269.17 327.507 265.639C328.201 265.234 327.573 264.153 326.876 264.56C321.667 267.601 315.586 269.16 309.717 270.338C303.392 271.607 296.901 272.378 290.444 272.359C286.639 272.348 282.986 271.775 279.26 271.083C274.186 270.141 269.126 269.073 264.138 267.748C261.452 267.034 258.769 266.256 256.18 265.24C254.577 264.611 252.571 263.873 251.469 262.468C250.972 261.834 250.093 262.724 250.584 263.35Z" fill="#FD473D"/>
</svg>
