<svg width="501" height="501" viewBox="0 0 501 501" fill="none" xmlns="http://www.w3.org/2000/svg">
<path d="M250.367 500.286C388.438 500.286 500.367 498.242 500.367 495.721C500.367 493.2 388.438 491.157 250.367 491.157C112.296 491.157 0.367188 493.2 0.367188 495.721C0.367188 498.242 112.296 500.286 250.367 500.286Z" fill="#DDDDDC"/>
<path d="M353.582 159.891C351.61 167.016 348.79 177.329 346.819 184.453C343.459 180.769 336.764 176.085 333.188 172.527C330.702 166.563 329.247 165.376 326.199 162.318C325.555 161.67 324.706 161.087 324.198 162.14C323.586 163.409 324.158 165.656 324.891 166.596C325.624 167.537 326.551 168.029 327.017 169.544C324.094 169.429 321 168.972 318.365 166.319C317.969 165.92 317.507 165.49 317.11 165.882C316.647 166.339 316.553 167.63 316.59 168.699C316.798 174.783 319.224 179.736 321.949 181.852C324.673 183.968 327.664 183.799 330.567 183.517C338.286 192.924 341.855 199.004 347.546 205.551C349.105 204.342 358.673 181.222 360.998 171.214C359.704 164.582 356.971 159.02 353.582 159.891Z" fill="#F8A97C"/>
<path d="M360.895 174.612C357.983 176.648 349.898 168.38 349.352 164.026C352.723 151.569 360.437 127.63 366.025 119.404C366.096 134.608 363.031 160.084 360.895 174.612Z" fill="#C6E4F7"/>
<path d="M387.469 199.736C390.445 178.223 392.107 155.91 392.4 133.517C392.456 129.247 392.412 124.634 391.192 121.216C389.476 116.405 386.196 115.871 383.334 115.76C377.805 118.066 371.681 119.391 366.044 119.346C359.659 147.989 356.896 180.457 358.373 211.926C365.781 212.591 373.201 212.347 380.596 211.225C382.161 210.987 383.778 210.677 385.154 209.098C386.532 207.518 387.032 202.901 387.469 199.736Z" fill="#C6E4F7"/>
<path d="M397.493 165.769C398.622 175.99 398.921 186.612 398.372 197.041C398.056 203.036 395.382 207.696 394.383 213.35C391.471 213.516 388.31 213.94 385.399 214.106C386.492 206.376 387.981 199.017 389.745 191.857C391.352 185.334 389.543 176.843 388.546 169.806C391.668 167.754 394.25 166.661 397.493 165.769Z" fill="#F8A97C"/>
<path d="M363.049 53.5513C365.27 50.6923 367.961 49.8162 370.566 49.9737C373.753 50.1689 377.009 51.9344 379.492 56.1331C383.645 63.1575 384.843 76.0685 383.243 86.7482C381.644 97.4301 377.688 105.983 373.182 111.967C372.858 112.397 369.048 102.707 368.663 101.724C367.206 98.0046 365.858 94.0987 364.626 90.0375C363.414 86.0429 362.317 81.8952 361.34 77.6278C360.522 74.0479 359.039 69.155 359.228 65.1093C359.451 60.3384 361.164 55.9778 363.049 53.5513Z" fill="#262D65"/>
<path d="M357.013 73.052C356.693 78.3065 356.779 83.7251 357.528 88.7843C358.277 93.8436 359.721 98.5258 361.775 101.6C363.021 103.465 364.728 104.696 366.056 103.102C366.993 101.977 367.485 99.7457 367.831 97.5987C368.764 91.823 369.065 85.4839 368.314 79.5929C367.573 73.7884 365.386 67.4449 362.892 64.3153C359.72 60.3362 357.376 67.0878 357.013 73.052Z" fill="#262D65"/>
<path d="M368.261 113.763C373.258 113.763 377.31 101.105 377.31 85.4906C377.31 69.8759 373.258 57.2177 368.261 57.2177C363.263 57.2177 359.212 69.8759 359.212 85.4906C359.212 101.105 363.263 113.763 368.261 113.763Z" fill="#F8A97C"/>
<path d="M375.388 100.859L379.535 118.936L370.604 128.979L368.372 102.866L375.388 100.859Z" fill="#F8A97C"/>
<path d="M379.997 85.8344C379.159 86.7327 378.25 87.2561 377.309 87.2827C371.957 87.4424 367.004 81.4871 364.241 71.8632C364.608 77.1775 367.402 86.2824 367.059 86.8258C366.525 87.6687 358.001 73.0409 359.02 64.1845C359.924 56.3305 364.285 51.2801 368.133 51.1559C371.982 51.0317 375.705 55.5453 377.904 62.1794C380.101 68.8134 380.542 77.8363 379.997 85.8344Z" fill="#262D65"/>
<path d="M382.643 50.3375C385.358 48.3324 388.544 49.4281 390.812 53.1499C393.081 56.8695 394.358 63.0954 394.089 69.1129C393.851 74.405 392.519 79.2802 392.295 84.5746C392.023 90.9779 393.545 97.5787 396.104 101.11C392.955 102.307 389.533 99.3287 387.71 93.8059C385.766 87.9149 385.578 79.7282 383.112 74.7754C381.408 71.3508 378.931 68.3898 378.795 62.7938C378.663 57.353 380.22 52.1274 382.643 50.3375Z" fill="#262D65"/>
<path d="M379.374 89.3034C379.374 93.9057 378.192 97.6364 376.734 97.6364C375.276 97.6364 374.094 93.9057 374.094 89.3034C374.094 84.701 375.276 80.9703 376.734 80.9703C378.192 80.9703 379.374 84.701 379.374 89.3034Z" fill="#F8A97C"/>
<path d="M380.573 111.27C377.04 115.582 373.824 123.693 370.604 128.981C372.029 132.129 373.764 135.311 374.896 138.944C378.063 131.465 381.148 121.56 385.114 116.008C383.565 114.58 382.123 112.697 380.573 111.27Z" fill="#E3F0F7"/>
<path d="M370.604 128.979L366.879 134.932L369.71 118.528L370.604 128.979Z" fill="#E3F0F7"/>
<path d="M387.726 116.498C392.075 120.803 395.136 129.545 396.876 138.953C398.617 148.362 399.193 158.512 399.756 168.535C395.455 173.678 390.186 176.721 385.252 175.91C383.531 161.712 383.141 146.033 383.975 131.488C384.29 125.967 385.551 119.672 387.726 116.498Z" fill="#C6E4F7"/>
<path d="M455.803 167.098H403.629V215.477H455.803V167.098Z" fill="#736D7B"/>
<path d="M468.411 194.026H457.324V213.651H468.411V194.026Z" fill="#4C4951"/>
<path d="M451.671 124.197H429.062V147.473H451.671V124.197Z" fill="#736D7B"/>
<path d="M448.194 141.54H443.411V171.205H448.194V141.54Z" fill="#4C4951"/>
<path d="M473.846 204.063H319.933V287.622L473.846 297.793V204.063Z" fill="#69C5E4"/>
<path d="M473.846 297.793L319.933 287.622V369.033L473.846 359.853V297.793Z" fill="#4588A7"/>
<path d="M473.846 359.853L319.933 369.033V386.097L473.846 429.479V359.853Z" fill="#69C5E4"/>
<path d="M473.846 429.479L319.933 386.097V411.544L473.846 435.043V429.479Z" fill="#4588A7"/>
<path d="M319.933 411.544V495.69H473.846V435.043L319.933 411.544Z" fill="#69C5E4"/>
<path d="M262.432 128.762L280.91 167.1L305.694 133.326C305.694 133.326 318.547 140.007 316.998 148.387C314.172 163.675 304.389 146.561 304.389 146.561L281.78 186.725L260.692 155.234L262.432 128.762Z" fill="#F8A97C"/>
<path d="M243.085 37.9388C247.107 37.9388 250.367 29.51 250.367 19.1124C250.367 8.7149 247.107 0.286011 243.085 0.286011C239.063 0.286011 235.803 8.7149 235.803 19.1124C235.803 29.51 239.063 37.9388 243.085 37.9388Z" fill="#262D65"/>
<path d="M253.303 38.1673L248.738 26.301L245.042 34.7449L250.041 49.3482L254.824 43.4151L253.303 38.1673Z" fill="#FFCC05"/>
<path d="M239.715 482.438L253.496 495.074C257.829 495.162 262.163 495.335 266.505 495.69C266.78 488.142 259.716 480.612 250.041 476.959C247.867 472.168 245.785 466.413 245.785 466.413C242.851 466.26 239.916 466.071 236.982 465.985C236.944 475.691 236.701 485.397 236.533 495.098C237.379 495.083 238.224 495.078 239.069 495.065L239.715 482.438Z" fill="#262D65"/>
<path d="M241.02 319.421L238.085 468.32L245.259 470.146L253.411 326.266L241.02 319.421Z" fill="#F8A97C"/>
<path d="M272.651 482.438L286.432 495.074C290.764 495.162 295.098 495.335 299.44 495.69C299.716 488.142 292.651 480.612 282.977 476.959C280.803 472.168 278.72 466.413 278.72 466.413C275.787 466.26 272.852 466.071 269.918 465.985C269.88 475.691 269.637 485.397 269.469 495.098C270.315 495.083 271.159 495.078 272.004 495.065L272.651 482.438Z" fill="#262D65"/>
<path d="M258.551 326.366L271.373 467.635L278.14 468.32L270.803 323.529L258.551 326.366Z" fill="#F8A97C"/>
<path d="M278.874 456.509H269.173V460.959H278.874V456.509Z" fill="#262D65"/>
<path d="M246.753 458.051H237.053V462.5H246.753V458.051Z" fill="#262D65"/>
<path d="M257.189 107.711L264.037 124.654L253.521 117.807L246.51 108.908L252.379 99.4951L257.189 107.711Z" fill="#F8A97C"/>
<path d="M250.19 62.9668L249.575 104.009L258.656 112.331C258.656 112.331 258.09 80.2827 260.021 77.8784C261.951 75.4741 250.19 62.9668 250.19 62.9668Z" fill="#F8A97C"/>
<path d="M268.389 69.3081C266.311 82.1725 264.4 97.6763 259.492 94.1808C254.585 90.6852 248.541 69.5166 250.619 56.6521C252.698 43.7877 258.361 36.1911 263.268 39.6866C268.175 43.1822 270.467 56.4436 268.389 69.3081Z" fill="#F8A97C"/>
<path d="M256.629 70.4703C256.629 70.4703 255.583 74.6157 255.118 79.3977C254.634 84.3838 252.244 87.5556 249.932 86.0296L249.845 85.9719C249.845 85.9719 234.907 31.0963 250.56 37.4864C250.56 37.4864 247.299 9.41755 264.473 31.0963C281.648 52.7751 268.93 57.1113 268.93 57.1113C268.93 57.1113 262.842 45.7019 258.603 63.2729C258.603 63.2729 256.973 52.0919 254.799 62.3613C252.626 72.6284 256.629 70.4703 256.629 70.4703Z" fill="#262D65"/>
<path d="M233.923 392.008C241.261 409.898 266.237 402.332 278.736 390.513C282.125 382.004 272.216 316.34 271.455 299.038C270.25 271.621 271.624 223.87 273.376 189.746C275.111 155.965 270.618 145.745 264.689 123.434C259.248 118.417 254.132 109.285 248.35 106.182C244.271 104.599 249.366 149.733 248.012 202.796C247.439 225.225 240.64 244.189 240.356 266.808C239.582 328.326 233.736 373.749 233.923 392.008Z" fill="#CC4A4A"/>
<path d="M254.601 177.997C254.601 177.997 257.709 137.139 255.817 130.898C253.925 124.656 249.87 116.143 247.573 125.506C247.573 125.506 241.626 175.158 247.438 199.276L254.259 194.787L255.317 177.817L254.601 177.997Z" fill="#F8A97C"/>
<path d="M246.889 224.156C246.889 224.156 246.953 223.397 247.073 222.055C247.496 217.364 248.623 205.6 250.175 195.067C250.949 189.803 251.835 184.844 252.77 181.28C253.235 179.498 253.715 178.07 254.173 177.145C254.633 176.209 255.039 175.821 255.383 175.825C255.674 175.83 255.995 176.072 256.396 176.843C257.555 179.088 258.495 182.759 259.207 187.106C261.36 200.155 261.5 219.014 261.496 223.127C261.496 223.663 261.494 223.945 261.494 223.945L262.575 223.978C262.575 223.974 262.577 223.674 262.577 223.124C262.577 220.31 262.521 210.948 261.828 201C261.48 196.025 260.975 190.906 260.228 186.363C259.479 181.823 258.497 177.844 257.131 175.178C256.6 174.138 255.999 173.55 255.382 173.554C254.537 173.565 253.81 174.581 253.175 176.043C252.062 178.625 251.098 182.83 250.214 187.756C247.581 202.508 245.828 223.734 245.824 223.77L246.889 224.156Z" fill="#2A2B79"/>
<path d="M264.737 205.804L245.141 207.791C245.141 207.791 240.546 244.961 243.519 247.514C246.492 250.066 268.386 251.486 268.657 244.393C268.926 237.297 264.737 205.804 264.737 205.804Z" fill="#2A2B79"/>
<path d="M248.789 206.372C248.789 206.372 242.302 233.611 248.384 236.448C254.465 239.285 263.251 239.853 263.385 232.192C263.519 224.531 260.006 204.387 260.006 204.387L248.789 206.372Z" fill="#0F1041"/>
<path d="M255.818 229.92C255.818 230.861 254.97 231.624 253.925 231.624C252.881 231.624 252.033 230.861 252.033 229.92C252.033 228.98 252.881 228.217 253.925 228.217C254.97 228.219 255.818 228.98 255.818 229.92Z" fill="#CA992C"/>
<path d="M274.911 176.832C274.255 174.583 273.035 173.363 271.788 173.676L255.317 177.815L254.259 194.785L272.441 182.817C272.441 182.817 271.765 188.206 273.251 192.463L273.116 198.136C273.116 198.136 271.224 196.433 271.63 198.988C272.035 201.541 277.846 206.365 278.657 198.42C279.235 192.767 276.52 182.353 274.911 176.832Z" fill="#F8A97C"/>
<path d="M326.353 140.482L310.906 127.062L307.542 144.129L322.988 157.55L326.353 140.482Z" fill="#FFCC05"/>
<path d="M307.161 136.977C307.161 136.977 314.009 140.4 312.215 143.824C310.421 147.246 305.693 143.824 305.693 143.824L307.161 136.977Z" fill="#F8A97C"/>
<path d="M193.094 495.69H175.367V479.945H182.015C186.157 479.945 199.741 486.994 199.741 495.69H193.094Z" fill="#675549"/>
<path d="M160.975 495.69H143.247V479.945H149.895C154.037 479.945 167.622 486.994 167.622 495.69H160.975Z" fill="#675549"/>
<path d="M208.257 269.816C207.671 275.48 204.247 278.727 200.609 277.066C196.972 275.405 194.5 269.467 195.086 263.803C195.672 258.138 199.096 254.891 202.734 256.552C206.371 258.211 208.844 264.149 208.257 269.816Z" fill="#F6B677"/>
<path d="M203.755 262.997C203.131 260.447 201.83 258.961 200.469 259.169C199.074 259.384 197.878 261.352 197.46 264.151C195.593 276.623 190.901 312.654 192.215 352.394H213.411C213.411 352.394 211.232 293.553 203.755 262.997ZM200.367 261.114C208.085 275.948 201.237 293.974 201.237 293.974C197.432 278.685 200.367 261.114 200.367 261.114Z" fill="#69C5E4"/>
<path d="M187.542 238.056C188.194 238.513 197.759 255.855 197.759 255.855L194.933 269.547L184.498 264.526L187.542 238.056Z" fill="#555555"/>
<path d="M203.251 262.694C203.917 266.622 203.59 270.454 202.521 271.253C201.452 272.051 200.045 269.514 199.379 265.586C198.714 261.658 199.04 257.825 200.109 257.027C201.178 256.228 202.585 258.765 203.251 262.694Z" fill="#F6B677"/>
<path d="M156.672 326.596L175.857 481.712L184.498 480.878C184.498 480.878 184.715 264.011 176.455 237.142L156.672 326.596Z" fill="#132139"/>
<path d="M155.059 483.194C162.736 426.446 184.591 319.071 179.499 240.338C171.441 226.857 163.09 267.422 153.412 269.547C150.476 337.021 145.536 413.203 143.901 483.081L155.059 483.194Z" fill="#192A4D"/>
<path d="M165.614 76.5631C164.027 92.0004 159.871 98.7787 158.594 114.305C162.184 118.825 165.841 122.797 169.71 126.524C169.051 116.383 170.848 102.004 172.925 94.1741C175.002 86.3445 167.346 81.791 165.614 76.5631Z" fill="#F6B677"/>
<path d="M176.264 285.288L154.501 280.77C151.395 280.125 149.139 274.32 149.439 267.802C150.654 241.421 151.354 202.568 150.771 189.408C150.452 182.202 150.587 112.619 158.567 114.997C163.06 116.991 167.198 122.942 171.415 127.225C172.891 128.724 173.537 131.902 174.479 134.719C180.319 152.184 202.475 230.69 186.526 275.973C184.164 282.684 180.222 286.109 176.264 285.288Z" fill="#787878"/>
<path d="M184.624 309.549C184 306.998 182.7 305.512 181.339 305.721C179.944 305.936 178.748 307.903 178.33 310.702C176.463 323.172 171.771 359.205 173.085 398.945H194.282C194.282 398.945 192.101 340.104 184.624 309.549ZM181.237 307.668C188.955 322.5 182.107 340.528 182.107 340.528C178.302 325.239 181.237 307.668 181.237 307.668Z" fill="#69C5E4"/>
<path d="M177.948 281.529L177.523 281.972C176.126 281.68 174.347 281.828 173.8 284.545C173.591 285.583 173.634 286.761 173.692 287.881C174.168 297.232 175.488 306.785 178.545 313.657C179.485 315.77 180.823 317.716 182.148 316.915C183.689 315.986 184.238 312.006 184.316 308.642C184.561 298.048 182.333 286.794 177.948 281.529Z" fill="#F6B677"/>
<path d="M162.078 134.495C157.601 134.732 153.954 142.101 153.678 151.485C153.047 172.926 152.482 210.176 155.15 232.577C159.063 265.437 172.324 292.821 172.324 292.821L181.237 286.431C181.237 286.431 167.107 239.422 168.412 220.709C169.263 208.494 170.3 175.28 170.917 153.685C171.22 143.085 167.135 134.227 162.078 134.495Z" fill="#555555"/>
<path d="M177.245 76.5631C180.437 99.8344 180.195 120.2 173.678 122.62C167.162 125.04 157.149 101.706 156.727 88.4406C156.306 75.1747 159.344 62.9712 165.612 61.3676C171.878 59.7618 175.788 65.9389 177.245 76.5631Z" fill="#F6B677"/>
<path d="M177.315 57.3353C176.453 50.9918 172.844 47.1147 169.831 48.9801C167.92 50.1623 165.968 53.2453 164.154 51.5196C163.236 50.6458 162.656 48.725 161.855 47.4408C160.636 45.4845 158.867 45.1762 157.511 46.6822C156.154 48.1882 155.28 51.4287 155.363 54.6448C155.394 55.8137 155.536 57.0136 155.369 58.1315C155.047 60.283 153.679 61.4297 153.64 63.6832C153.618 64.9097 153.997 66.3337 153.605 67.2431C153.343 67.8508 152.893 67.7976 152.508 67.9529C151.176 68.4918 150.536 71.9231 150.757 74.7333C150.978 77.5435 151.779 79.9744 152.337 82.5717C152.895 85.169 153.183 88.3873 152.416 90.7384C152.094 91.7276 151.606 92.484 151.385 93.5885C151.049 95.2676 151.427 97.1662 151.798 98.8119C152.198 100.582 152.654 102.476 153.49 103.346C154.188 104.071 155.021 103.933 155.757 104.468C156.459 104.976 157.026 106.054 157.658 106.87C159.51 109.263 162.007 109.243 163.851 106.823C165.694 104.404 166.796 99.6969 166.582 95.1544C164.62 94.8328 162.229 93.329 161.897 89.2568C161.666 86.4088 162.754 83.5321 164.097 82.9044C165.44 82.2745 166.881 83.6142 167.77 85.8167L167.833 85.6858C167.523 83.49 167.243 81.2498 167.306 78.9719C167.374 76.4345 167.952 73.8017 169.034 72.6617C170.165 71.4684 171.521 72.1382 172.78 71.8654C175.904 71.1845 178.177 63.6788 177.315 57.3353Z" fill="#262D65"/>
<path d="M89.8649 127.056C84.6088 121.62 78.907 118.089 73.0868 116.669C72.231 116.461 71.2707 116.359 70.6104 117.516C69.8856 118.785 69.8148 121.059 69.9258 123.028C70.3505 130.623 74.1411 139.909 74.1411 139.909C76.8014 143.906 79.8853 146.466 82.9913 148.619C85.3949 150.285 87.9484 151.745 90.4301 150.704C92.9118 149.664 95.2614 145.366 95.2625 140.051C95.2646 133.981 92.4596 129.738 89.8649 127.056Z" fill="#DCF1F6"/>
<path d="M94.6219 129.272C96.8003 136.445 96.382 145.184 93.6869 148.792C90.9918 152.401 87.0405 149.511 84.862 142.34C82.6835 135.167 83.1019 126.428 85.797 122.82C88.4921 119.209 92.4434 122.099 94.6219 129.272Z" fill="#87CDDF"/>
<path d="M93.0182 463.099C90.7088 473.131 90.3728 470.709 85.5806 467.047C76.0922 398.26 74.2054 327.053 59.1504 262.17C63.9004 255.152 64.454 251.586 69.2779 244.792C91.2486 353.452 92.1329 383.124 93.0182 463.099Z" fill="#443E47"/>
<path d="M118.319 479.858C108.631 485.474 98.9806 490.981 89.1912 495.69C88.0671 486.095 86.8436 476.562 85.5801 467.047C88.0586 465.727 90.5382 464.41 93.0178 463.099C95.1424 467.127 97.2543 471.192 99.3651 475.245C104.562 474.67 110.161 470.166 115.095 475.112C116.237 476.256 117.204 478.536 118.319 479.858Z" fill="#2A3137"/>
<path d="M53.8821 466.413C51.3771 468.688 48.8553 470.889 46.3662 473.237C47.9425 401.015 52.1272 301.597 55.3126 229.479C65.4052 227.296 67.6185 213.181 76.0218 227.032C81.6075 312.115 61.0863 410.306 53.8821 466.413Z" fill="#524D57"/>
<path d="M74.6015 495.69C64.5944 494.874 54.6339 494.914 44.6289 495.098C44.7979 485.397 45.0409 475.691 45.0779 465.985C48.0128 466.071 50.9467 466.26 53.8806 466.413C55.0004 471.073 56.1077 475.755 57.2064 480.428C62.2638 482.522 68.0851 481.548 72.1272 489.198C73.0653 490.968 73.7161 493.754 74.6015 495.69Z" fill="#2A3137"/>
<path d="M66.0558 54.5894C64.4014 70.6876 60.0666 77.7564 58.7344 93.9456C62.4786 98.6611 66.2925 102.802 70.3272 106.688C69.6394 96.1126 71.5137 81.1167 73.6795 72.9522C75.8453 64.79 67.8603 60.0434 66.0558 54.5894Z" fill="#F59174"/>
<path d="M74.5151 229.727L56.3086 235.381C52.4197 236.59 49.0516 229.703 49.5037 221.505C50.5708 202.14 51.1329 184.804 50.5782 172.263C50.2454 164.749 50.3859 92.1867 58.7079 94.6665C63.4103 96.7536 67.7408 102.997 72.1559 107.469C73.6783 109.01 74.8204 111.821 75.3 115.223C78.2751 136.341 79.7563 144.252 76.2604 173.102C75.1468 182.291 76.7675 197.289 79.321 213.441C80.4863 220.809 78.1726 228.592 74.5151 229.727Z" fill="#2A3137"/>
<path d="M56.4043 95.7888L57.8876 88.9507L72.4851 98.2974L71.9241 109.352L56.4043 95.7888Z" fill="#DCF1F6"/>
<path d="M66.2416 109.101C63.9554 105.714 60.5239 105.694 58.5018 109.758C58.5018 109.758 47.8598 133.659 45.0717 149.744C42.2837 165.829 41.8484 184.152 45.0643 199.882C46.8688 194.031 49.2237 188.929 51.9526 184.957C52.464 184.214 53.0239 183.413 53.212 182.167C53.3451 181.286 53.2659 180.335 53.2109 179.416C52.82 172.867 53.8385 166.004 55.9324 161.08C57.7263 156.862 60.1785 154.176 62.3031 150.698C64.0198 147.89 65.5349 144.536 66.7794 140.788C68.38 135.968 69.5485 130.341 69.6171 124.468C69.6869 118.597 68.5279 112.488 66.2416 109.101Z" fill="#DCF1F6"/>
<path d="M52.5017 186.836L66.9978 241.392L62.7549 251.042L47.7285 200.569L52.5017 186.836Z" fill="#F59174"/>
<path d="M54.693 178.423C50.9742 182.107 47.7656 188.06 45.5924 195.395C44.6427 198.6 43.8661 202.28 44.0616 206.032C45.5618 208.066 47.062 210.102 48.5622 212.136C48.2495 207.133 49.6715 202.453 51.0291 198.289C52.2462 194.556 53.5341 190.688 55.4252 188.521C55.9946 187.869 56.6486 187.275 57.1864 186.501L54.693 178.423Z" fill="#87CDDF"/>
<path d="M94.7146 136.148L77.4315 80.0099L73.8447 86.8569L85.258 136.833C85.258 136.833 94.5519 160.109 94.7146 136.148Z" fill="#F59174"/>
<path d="M80.6725 82.3432C81.8874 88.2431 81.0285 94.6975 78.756 96.7603C76.4824 98.823 73.6553 95.7112 72.4414 89.8113C71.2264 83.9114 72.0853 77.457 74.3578 75.3943C76.6314 73.3337 79.4585 76.4434 80.6725 82.3432Z" fill="#E5806E"/>
<path d="M74.1258 59.1801L67.0166 65.6306L73.2907 96.1081L80.3999 89.6576L74.1258 59.1801Z" fill="#555555"/>
<path d="M73.9992 64.7204L69.0234 69.235L73.4153 90.5693L78.3911 86.0546L73.9992 64.7204Z" fill="#A0DBE9"/>
<path d="M79.7071 79.7704C81.0087 82.778 81.6056 86.0917 81.0394 87.1741C80.4731 88.2543 78.9581 86.6928 77.6565 83.6829C76.3549 80.6753 75.758 77.3594 76.3243 76.2793C76.8905 75.2013 78.4045 76.7628 79.7071 79.7704Z" fill="#E5806E"/>
<path d="M75.1336 48.6385C76.4721 59.8194 81.3975 84.5058 74.805 88.7888C68.2125 93.0718 56.4073 71.6614 55.149 58.0517C53.8907 44.442 56.2795 30.9854 62.6649 27.614C69.0503 24.2427 73.3597 33.8156 75.1336 48.6385Z" fill="#F59174"/>
<path d="M53.7099 52.1141C54.03 48.7516 55.0558 45.8106 56.3363 43.6791C57.6168 41.5476 59.1413 40.1591 60.689 39.0656C60.8126 38.9791 62.4988 38.083 62.4988 38.083C61.6599 41.2592 63.0281 48.7893 63.5352 52.2627C62.4629 50.1645 60.5823 50.4772 59.5808 52.724C58.5792 54.9709 58.5053 58.6883 59.2998 61.2745C60.0932 63.8629 61.6304 65.2513 63.0915 65.0007C64.0413 70.6078 62.3361 77.5324 59.6072 79.1449C58.0383 75.7203 56.7209 71.7878 55.7151 67.5292C54.8509 63.8606 53.3274 56.1265 53.7099 52.1141Z" fill="#262D65"/>
<path d="M53.8365 51.0561C55.5597 44.269 58.1935 36.3685 62.8399 36.3685C62.8399 36.3685 65.4452 24.6574 70.8259 31.6729C61.9969 11.203 51.9761 41.6318 53.8365 51.0561Z" fill="#262D65"/>
</svg>
